<?xml version="1.0" encoding="UTF-8" standalone="no"?>
<!-- Created with Inkscape (http://www.inkscape.org/) -->

<svg
   xmlns:dc="http://purl.org/dc/elements/1.1/"
   xmlns:cc="http://creativecommons.org/ns#"
   xmlns:rdf="http://www.w3.org/1999/02/22-rdf-syntax-ns#"
   xmlns:svg="http://www.w3.org/2000/svg"
   xmlns="http://www.w3.org/2000/svg"
   xmlns:sodipodi="http://sodipodi.sourceforge.net/DTD/sodipodi-0.dtd"
   xmlns:inkscape="http://www.inkscape.org/namespaces/inkscape"
   width="553.15094"
   height="209.44086"
   viewBox="0 0 146.35452 55.414562"
   version="1.1"
   id="svg8"
   inkscape:version="0.92.4 (5da689c313, 2019-01-14)"
   sodipodi:docname="logo-cateno-cinza.svg">
  <defs
     id="defs2">
    <inkscape:perspective
       sodipodi:type="inkscape:persp3d"
       inkscape:vp_x="-6.415397 : 140.09675 : 1"
       inkscape:vp_y="0 : 1192.8175 : 0"
       inkscape:vp_z="185.94169 : 129.40597 : 1"
       inkscape:persp3d-origin="103.92843 : 81.052284 : 1"
       id="perspective3957" />
  </defs>
  <sodipodi:namedview
     id="base"
     pagecolor="#ffffff"
     bordercolor="#666666"
     borderopacity="1.0"
     inkscape:pageopacity="0.0"
     inkscape:pageshadow="2"
     inkscape:zoom="0.98994948"
     inkscape:cx="287.80631"
     inkscape:cy="-23.413905"
     inkscape:document-units="px"
     inkscape:current-layer="layer1"
     showgrid="false"
     inkscape:pagecheckerboard="true"
     inkscape:window-width="1920"
     inkscape:window-height="1027"
     inkscape:window-x="-8"
     inkscape:window-y="-8"
     inkscape:window-maximized="1"
     units="px"
     showborder="true"
     fit-margin-top="0"
     fit-margin-left="0"
     fit-margin-right="0"
     fit-margin-bottom="0"
     inkscape:showpageshadow="false" />
  <metadata
     id="metadata5">
    <rdf:RDF>
      <cc:Work
         rdf:about="">
        <dc:format>image/svg+xml</dc:format>
        <dc:type
           rdf:resource="http://purl.org/dc/dcmitype/StillImage" />
        <dc:title></dc:title>
      </cc:Work>
    </rdf:RDF>
  </metadata>
  <g
     inkscape:label="Camada 1"
     inkscape:groupmode="layer"
     id="layer1"
     transform="translate(-27.13509,-16.455744)">
    <text
       xml:space="preserve"
       style="font-style:normal;font-variant:normal;font-weight:normal;font-stretch:normal;font-size:18.90994835px;line-height:1.25;font-family:'Arial Rounded MT Bold';-inkscape-font-specification:'Arial Rounded MT Bold, Normal';font-variant-ligatures:normal;font-variant-position:normal;font-variant-caps:normal;font-variant-numeric:normal;font-variant-alternates:normal;font-feature-settings:normal;text-indent:0;text-align:start;text-decoration:none;text-decoration-line:none;text-decoration-style:solid;text-decoration-color:#000000;letter-spacing:0px;word-spacing:0px;text-transform:none;writing-mode:lr-tb;direction:ltr;text-orientation:mixed;dominant-baseline:auto;baseline-shift:baseline;text-anchor:start;white-space:normal;shape-padding:0;opacity:1;vector-effect:none;fill:#4d4d4d;fill-opacity:1;stroke:none;stroke-width:0.4727506;stroke-linecap:butt;stroke-linejoin:miter;stroke-miterlimit:4;stroke-dasharray:none;stroke-dashoffset:0;stroke-opacity:1"
       x="68.420998"
       y="131.29288"
       id="text3995"><tspan
         sodipodi:role="line"
         id="tspan3993"
         x="68.420998"
         y="148.545"
         style="stroke-width:0.4727506" /></text>
    <path
       sodipodi:nodetypes="cccccsccsscccssccscccccc"
       inkscape:connector-curvature="0"
       id="path10889"
       d="m 173.24106,16.455814 c -0.0884,0.003 -0.17501,0.0545 -0.21153,0.0855 -9.66019,6.65828 -11.57972,1.7193 -22.36204,0.63845 -8.99257,-0.90023 -15.8945,8.15742 -23.52911,14.54999 -2.8864,-1.16149 -5.76699,-2.62421 -8.68759,-4.16243 0.55934,0 2.30546,-0.13236 3.44644,-0.29944 1.31009,-0.19185 2.81406,-0.50456 3.88974,-0.80526 -11.32364,-1.26963 -22.68115,-10.28664 -34.023032,-8.21451 0.760537,-0.0727 1.625825,-0.0523 2.466199,0.0847 1.226823,0.19996 2.378763,0.61691 3.254792,1.05507 3.072611,1.53679 5.142581,3.83048 6.814051,5.48052 6.08475,2.43043 12.79053,6.71171 19.93673,9.11092 -2.36553,1.66331 -4.82937,2.94258 -7.46855,3.49336 1.47893,1.05908 1.96808,1.2603 2.69531,1.55223 0.7416,0.2977 1.74555,0.51393 2.92284,0.3807 0.47875,-0.0542 1.28778,-0.23467 1.90949,-0.51009 1.96708,-1.15148 3.71647,-2.35639 5.27843,-3.55869 0.93668,-0.0147 2.13252,-0.0917 3.40342,-0.34132 1.2465,-0.24481 2.40118,-0.62305 3.23649,-0.9672 -1.3998,-0.0953 -2.80139,-0.33405 -4.20538,-0.68404 7.70241,-6.69497 10.7899,-13.04865 18.14631,-13.08153 7.01756,-0.0303 14.00618,6.42941 23.22815,-2.96519 0.12692,-0.18152 0.12262,-0.40172 0.0821,-0.62969 -0.0447,-0.16711 -0.13492,-0.21449 -0.22326,-0.21203 z"
       style="fill:#00aab5;fill-opacity:1;fill-rule:nonzero;stroke:none;stroke-width:0.73775828" />
    <path
       id="path10891"
       d="m 92.830052,18.209544 c -5.06987,-0.0872 -11.40314,3.6661 -19.106192,16.32127 -0.319517,0.49579 0.297662,1.08542 0.587656,0.66046 12.283641,-16.78251 20.293559,-12.79129 26.219244,-7.58199 8.7668,7.70291 12.38342,16.55314 23.76404,11.28632 -6.34988,2.58359 -10.14871,-4.18711 -20.92293,-14.9628 -2.57879,-2.57949 -6.068426,-5.64633 -10.541818,-5.72326 z m 51.028218,0.14119 c -7.18583,2.79635 -14.2743,8.86717 -25.40739,9.21653 6.70884,1.36344 11.22483,0.26122 14.92175,-1.48943 1.30652,-1.19327 2.63371,-2.4559 4.64804,-4.06726 1.92413,-1.53916 4.18181,-2.97306 5.8376,-3.65984 z m 10.39039,2.4635 c -9.17575,3.28211 -12.09399,14.34533 -24.6756,14.52261 12.08682,3.08842 19.88874,-10.57073 29.30367,-13.3888 -0.99439,-0.19885 -3.78523,-0.94105 -4.62807,-1.13381 z"
       style="fill:#b3d334;fill-opacity:1;fill-rule:nonzero;stroke:none;stroke-width:0.73775828"
       inkscape:connector-curvature="0" />
    <path
       id="path10894"
       d="m 73.56899,44.680864 v 6.53222 h -4.681796 v 3.15672 h 4.681796 v 10.08802 c 0,5.04329 1.752083,7.41248 6.883944,7.41248 1.405437,0 2.673634,-0.35046 4.210382,-0.78942 v -3.24412 c -1.317653,0.26115 -2.104997,0.56812 -3.070731,0.56812 -3.726372,0 -3.988089,-1.271 -3.988089,-4.12244 v -9.91264 h 5.307546 v -3.15672 h -5.307546 v -6.53222 z m -14.022892,6.26941 c -2.062752,0 -7.853042,0.79022 -10.526702,1.36051 l 0.177835,3.06924 c 2.63012,-0.34896 7.803332,-0.96283 9.163744,-0.96283 3.771459,0 4.035045,1.4901 4.035045,2.93684 v 1.57981 l -7.67778,0.70295 c -6.575641,0.60941 -6.838495,5.2144 -6.838495,6.26941 0,1.0513 0.349922,5.9641 6.838495,5.9641 h 2.590063 c 1.446749,0 4.121944,-0.70298 5.525871,-2.10544 l 0.87493,1.75518 h 2.719991 v -13.11377 c 0,-5.04333 -1.800552,-7.456 -6.882997,-7.456 z m 62.969602,0 c -1.92922,0 -5.04076,0.7465 -7.67237,1.31602 l -0.87686,-1.00779 h -3.20503 v 20.30306 h 4.08189 v -16.26802 c 2.54084,-0.35119 5.21687,-0.87589 6.48581,-0.87589 3.77289,0 4.03794,1.27031 4.03794,4.11951 v 13.0244 h 4.03451 v -13.19878 c 0,-4.9998 -1.79832,-7.41251 -6.88589,-7.41251 z m 18.38764,0 c -5.08684,0 -6.88638,2.41267 -6.88638,7.456 v 6.05201 c 0,5.04333 1.79954,7.41202 6.88638,7.41202 h 4.86789 c 5.0861,0 6.88591,-2.36869 6.88591,-7.41202 v -6.05201 c 0,-5.04333 -1.79981,-7.456 -6.88591,-7.456 z m -106.881363,0 c -5.043333,-1.1e-4 -6.886887,2.37196 -6.886887,7.28099 v 6.22595 c 0,5.0433 1.798772,7.41202 6.929864,7.41202 2.018508,0 7.804637,-0.7442 10.526216,-1.36097 l -0.178308,-3.06828 c -2.675838,0.35046 -7.804024,0.9643 -9.207259,0.9643 -3.728638,0 -3.990558,-1.2715 -3.990558,-4.12291 v -6.18444 c 0,-2.5416 0.440268,-3.67988 3.946109,-3.67988 h 2.543641 c 2.236133,0 3.551814,0.17248 3.988586,1.13821 l 3.46394,-1.27254 c -0.917776,-2.23617 -2.849639,-3.33256 -6.27137,-3.33256 z m 60.661436,0 c -5.084607,0 -6.884916,2.41167 -6.884916,7.45496 v 6.05205 c 0,5.04333 1.800269,7.41202 6.926932,7.41202 2.018508,0 7.808571,-0.74493 10.524241,-1.36098 l -0.17295,-3.06824 c -2.67438,0.35043 -7.803785,0.96427 -9.207709,0.96427 -3.73011,0 -3.994462,-1.2715 -3.994462,-4.12291 v -0.61358 c 0,0 2.722219,-0.13272 7.677741,-0.43816 4.07759,-0.26342 6.84146,-2.3693 6.84146,-6.13852 0,-4.03774 -2.76387,-6.14091 -6.84146,-6.14091 z m 47.362537,3.46638 h 2.54017 c 3.77216,0 4.03358,1.31449 4.03358,4.16447 v 5.70078 c 0,2.85144 -0.26142,4.12198 -4.03358,4.12198 h -2.54017 c -3.72936,0 -3.99398,-1.27054 -3.99398,-4.12198 v -5.70078 c 0,-2.84998 0.26462,-4.16447 3.99398,-4.16447 z m -46.22286,2.9e-4 h 2.546073 c 3.024787,0 3.947067,0.87613 3.947067,2.67403 0,1.84146 -0.92228,2.36766 -3.947067,2.6731 l -6.494614,0.70147 v -1.88414 c 0,-2.85071 0.222129,-4.16446 3.948541,-4.16446 z m -33.42707,7.75931 v 1.40493 0.086 c 0,2.80716 -1.668153,4.73649 -5.351032,4.73649 H 55.85939 c -3.024097,0 -3.769325,-0.83387 -3.944138,-2.63105 0.174813,-1.83999 0.965066,-2.2373 3.944138,-2.67553 z"
       style="fill:#77787b;fill-opacity:1;fill-rule:nonzero;stroke:none;stroke-width:0.73775828"
       inkscape:connector-curvature="0" />
  </g>
</svg>
